<?xml version="1.0" encoding="UTF-8" standalone="no"?>
<svg
   xmlns:dc="http://purl.org/dc/elements/1.1/"
   xmlns:cc="http://creativecommons.org/ns#"
   xmlns:rdf="http://www.w3.org/1999/02/22-rdf-syntax-ns#"
   xmlns:svg="http://www.w3.org/2000/svg"
   xmlns="http://www.w3.org/2000/svg"
   xmlns:sodipodi="http://sodipodi.sourceforge.net/DTD/sodipodi-0.dtd"
   xmlns:inkscape="http://www.inkscape.org/namespaces/inkscape"
   width="210mm"
   height="297mm"
   viewBox="0 0 210 297"
   version="1.1"
   id="svg8"
   inkscape:version="1.0.2 (e86c870879, 2021-01-15)"
   sodipodi:docname="SpanNetty.svg">
  <defs
     id="defs2" />
  <sodipodi:namedview
     id="base"
     pagecolor="#ffffff"
     bordercolor="#666666"
     borderopacity="1.0"
     inkscape:pageopacity="0.0"
     inkscape:pageshadow="2"
     inkscape:zoom="2.8"
     inkscape:cx="333.27356"
     inkscape:cy="708.36961"
     inkscape:document-units="mm"
     inkscape:current-layer="layer1"
     inkscape:document-rotation="0"
     showgrid="false"
     inkscape:window-width="1920"
     inkscape:window-height="1017"
     inkscape:window-x="-8"
     inkscape:window-y="-8"
     inkscape:window-maximized="1" />
  <metadata
     id="metadata5">
    <rdf:RDF>
      <cc:Work
         rdf:about="">
        <dc:format>image/svg+xml</dc:format>
        <dc:type
           rdf:resource="http://purl.org/dc/dcmitype/StillImage" />
        <dc:title />
      </cc:Work>
    </rdf:RDF>
  </metadata>
  <circle
     style="display:none;fill:none;fill-opacity:1;stroke:#000000;stroke-width:0.0499999;stroke-linecap:round;stroke-linejoin:bevel;stroke-opacity:1"
     id="path884"
     cx="66.416473"
     cy="149.13641"
     r="37.666042"
     sodipodi:insensitive="true"
     inkscape:label="BigCircle" />
  <g
     inkscape:label="Ebene 1"
     inkscape:groupmode="layer"
     id="layer1"
     style="display:inline">
    <circle
       style="fill:#d35bca;fill-opacity:1;stroke:#000000;stroke-width:0.025;stroke-linecap:round;stroke-linejoin:bevel"
       id="path844"
       cx="32.264618"
       cy="133.69341"
       r="3.8710856" />
    <circle
       style="fill:#d35bca;fill-opacity:1;stroke:#000000;stroke-width:0.025;stroke-linecap:round;stroke-linejoin:bevel"
       id="path844-1"
       cx="46.103992"
       cy="117.06406"
       r="3.8710856" />
    <circle
       style="fill:#d35bca;fill-opacity:1;stroke:#000000;stroke-width:0.025;stroke-linecap:round;stroke-linejoin:bevel"
       id="path844-4"
       cx="76.439079"
       cy="113.45592"
       r="3.8710856" />
    <circle
       style="fill:#d35bca;fill-opacity:1;stroke:#000000;stroke-width:0.025;stroke-linecap:round;stroke-linejoin:bevel"
       id="path844-3"
       cx="99.424263"
       cy="130.96207"
       r="3.8710856" />
    <circle
       style="display:inline;fill:#873c8f;fill-opacity:1;stroke:#000000;stroke-width:0.025;stroke-linecap:round;stroke-linejoin:bevel"
       id="path844-3-5"
       cx="103.96786"
       cy="153.4127"
       r="3.8710856" />
    <circle
       style="display:inline;fill:#6d8ace;fill-opacity:1;stroke:#000000;stroke-width:0.025;stroke-linecap:round;stroke-linejoin:bevel"
       id="path844-3-4"
       cx="94.880684"
       cy="174.25974"
       r="3.8710856" />
    <circle
       style="display:inline;fill:#6d8ace;fill-opacity:1;stroke:#000000;stroke-width:0.025;stroke-linecap:round;stroke-linejoin:bevel"
       id="path844-3-6"
       cx="69.222809"
       cy="186.28687"
       r="3.8710856" />
    <circle
       style="display:inline;fill:#6d8ace;fill-opacity:1;stroke:#000000;stroke-width:0.025;stroke-linecap:round;stroke-linejoin:bevel"
       id="path844-3-8"
       cx="45.435818"
       cy="181.07512"
       r="3.8710856" />
    <circle
       style="display:inline;fill:#873c8f;fill-opacity:1;stroke:#000000;stroke-width:0.025;stroke-linecap:round;stroke-linejoin:bevel"
       id="path844-3-0"
       cx="31.136898"
       cy="163.30168"
       r="3.8710856" />
    <circle
       style="display:inline;fill:#d35bca;fill-opacity:1;stroke:#000000;stroke-width:0.0129565;stroke-linecap:round;stroke-linejoin:bevel"
       id="path844-3-2"
       cx="62.808346"
       cy="125.75031"
       r="2.0062208" />
    <circle
       style="display:inline;fill:#d35bca;fill-opacity:1;stroke:#000000;stroke-width:0.0133866;stroke-linecap:round;stroke-linejoin:bevel"
       id="path844-3-1"
       cx="49.912582"
       cy="137.84427"
       r="2.072823" />
    <circle
       style="display:inline;fill:#873c8f;fill-opacity:1;stroke:#000000;stroke-width:0.00994556;stroke-linecap:round;stroke-linejoin:bevel"
       id="path844-3-54"
       cx="68.487816"
       cy="143.59055"
       r="1.5400045" />
    <circle
       style="display:inline;fill:#873c8f;fill-opacity:1;stroke:#000000;stroke-width:0.0142468;stroke-linecap:round;stroke-linejoin:bevel"
       id="path844-3-20"
       cx="88.533028"
       cy="151.0741"
       r="2.2060277" />
    <circle
       style="display:inline;fill:#873c8f;fill-opacity:1;stroke:#000000;stroke-width:0.0116661;stroke-linecap:round;stroke-linejoin:bevel"
       id="path844-3-13"
       cx="75.436821"
       cy="166.0412"
       r="1.8064138" />
    <circle
       style="display:inline;fill:#873c8f;fill-opacity:1;stroke:#000000;stroke-width:0.00951543;stroke-linecap:round;stroke-linejoin:bevel"
       id="path844-3-9"
       cx="59.868374"
       cy="158.22356"
       r="1.4734021" />
    <circle
       style="display:inline;fill:#873c8f;fill-opacity:1;stroke:#000000;stroke-width:0.0116661;stroke-linecap:round;stroke-linejoin:bevel"
       id="path844-3-3"
       cx="45.502636"
       cy="155.48405"
       r="1.8064138" />
    <circle
       style="display:inline;fill:#873c8f;fill-opacity:1;stroke:#000000;stroke-width:0.00564429;stroke-linecap:round;stroke-linejoin:bevel"
       id="path844-3-22"
       cx="57.797035"
       cy="171.25296"
       r="0.8739813" />
    <circle
       style="display:inline;fill:#d35bca;fill-opacity:1;stroke:#000000;stroke-width:0.00779493;stroke-linecap:round;stroke-linejoin:bevel"
       id="path844-3-93"
       cx="84.323532"
       cy="138.31198"
       r="1.2069929" />
    <path
       style="fill:none;fill-rule:evenodd;stroke:#a94ca3;stroke-width:0.264583px;stroke-linecap:butt;stroke-linejoin:miter;stroke-opacity:1"
       d="M 61.028402,124.82474 49.538467,118.84998"
       id="path1057"
       inkscape:connector-type="polyline"
       inkscape:connector-curvature="0"
       inkscape:connection-start="#path844-3-2"
       inkscape:connection-end="#path844-1" />
    <path
       style="fill:none;fill-rule:evenodd;stroke:#a94ca3;stroke-width:0.264583px;stroke-linecap:butt;stroke-linejoin:miter;stroke-opacity:1"
       d="m 36.032834,134.5797 11.862008,2.78999"
       id="path1059"
       inkscape:connector-type="polyline"
       inkscape:connector-curvature="0"
       inkscape:connection-start="#path844"
       inkscape:connection-end="#path844-3-1" />
    <path
       style="fill:none;fill-rule:evenodd;stroke:#a94ca3;stroke-width:0.264583px;stroke-linecap:butt;stroke-linejoin:miter;stroke-opacity:1"
       d="m 34.740835,130.71799 8.88694,-10.67852"
       id="path1063"
       inkscape:connector-type="polyline"
       inkscape:connector-curvature="0"
       inkscape:connection-start="#path844"
       inkscape:connection-end="#path844-1" />
    <path
       style="fill:none;fill-rule:evenodd;stroke:#a94ca3;stroke-width:0.264583px;stroke-linecap:butt;stroke-linejoin:miter;stroke-opacity:1"
       d="m 49.947916,116.60685 22.647239,-2.69373"
       id="path1065"
       inkscape:connector-type="polyline"
       inkscape:connector-curvature="0"
       inkscape:connection-start="#path844-1"
       inkscape:connection-end="#path844-4" />
    <path
       style="fill:none;fill-rule:evenodd;stroke:#a94ca3;stroke-width:0.264583px;stroke-linecap:butt;stroke-linejoin:miter;stroke-opacity:1"
       d="m 79.518666,115.80142 16.82601,12.81515"
       id="path1067"
       inkscape:connector-type="polyline"
       inkscape:connector-curvature="0"
       inkscape:connection-start="#path844-4"
       inkscape:connection-end="#path844-3" />
    <path
       style="fill:none;fill-rule:evenodd;stroke:#873c8f;stroke-width:0.264583px;stroke-linecap:butt;stroke-linejoin:miter;stroke-opacity:1"
       d="M 100.19212,134.75617 103.2,149.6186"
       id="path1069"
       inkscape:connector-type="polyline"
       inkscape:connector-curvature="0"
       inkscape:connection-start="#path844-3"
       inkscape:connection-end="#path844-3-5" />
    <path
       style="fill:none;fill-rule:evenodd;stroke:#6d8ace;stroke-width:0.264583px;stroke-linecap:butt;stroke-linejoin:miter;stroke-opacity:1"
       d="m 102.42106,156.96125 -5.993575,13.74994"
       id="path1071"
       inkscape:connector-type="polyline"
       inkscape:connector-curvature="0"
       inkscape:connection-start="#path844-3-5"
       inkscape:connection-end="#path844-3-4" />
    <path
       style="fill:none;fill-rule:evenodd;stroke:#6d8ace;stroke-width:0.264583px;stroke-linecap:butt;stroke-linejoin:miter;stroke-opacity:1"
       d="m 91.375628,175.90273 -18.647763,8.74114"
       id="path1073"
       inkscape:connector-type="polyline"
       inkscape:connector-curvature="0"
       inkscape:connection-start="#path844-3-4"
       inkscape:connection-end="#path844-3-6" />
    <path
       style="fill:none;fill-rule:evenodd;stroke:#6d8ace;stroke-width:0.264583px;stroke-linecap:butt;stroke-linejoin:miter;stroke-opacity:1"
       d="M 65.441492,185.45838 49.217135,181.90361"
       id="path1075"
       inkscape:connector-type="polyline"
       inkscape:connector-curvature="0"
       inkscape:connection-start="#path844-3-6"
       inkscape:connection-end="#path844-3-8" />
    <path
       style="fill:none;fill-rule:evenodd;stroke:#6d8ace;stroke-width:0.264583px;stroke-linecap:butt;stroke-linejoin:miter;stroke-opacity:1"
       d="m 43.009313,178.05899 -9.44591,-11.74118"
       id="path1077"
       inkscape:connector-type="polyline"
       inkscape:connector-curvature="0"
       inkscape:connection-start="#path844-3-8"
       inkscape:connection-end="#path844-3-0" />
    <path
       style="fill:none;fill-rule:evenodd;stroke:#873c8f;stroke-width:0.264583px;stroke-linecap:butt;stroke-linejoin:miter;stroke-opacity:1"
       d="m 31.284232,159.43343 0.833052,-21.87177"
       id="path1079"
       inkscape:connector-type="polyline"
       inkscape:connector-curvature="0"
       inkscape:connection-start="#path844-3-0"
       inkscape:connection-end="#path844" />
    <path
       style="fill:none;fill-rule:evenodd;stroke:#6d8ace;stroke-width:0.264583px;stroke-linecap:butt;stroke-linejoin:miter;stroke-opacity:1"
       d="m 34.537058,161.45136 9.378918,-5.10387"
       id="path1081"
       inkscape:connector-type="polyline"
       inkscape:connector-curvature="0"
       inkscape:connection-start="#path844-3-0"
       inkscape:connection-end="#path844-3-3" />
    <path
       style="display:inline;fill:none;fill-rule:evenodd;stroke:#873c8f;stroke-width:0.264583px;stroke-linecap:butt;stroke-linejoin:miter;stroke-opacity:1"
       d="m 33.054475,159.93897 7.303222,-12.8071"
       id="path1083"
       inkscape:connector-type="polyline"
       inkscape:connector-curvature="0"
       inkscape:connection-start="#path844-3-0" />
    <path
       style="fill:none;fill-rule:evenodd;stroke:#873c8f;stroke-width:0.264583px;stroke-linecap:butt;stroke-linejoin:miter;stroke-opacity:1"
       d="m 34.261694,137.00953 6.096003,10.12234"
       id="path1085"
       inkscape:connector-type="polyline"
       inkscape:connector-curvature="0"
       inkscape:connection-start="#path844" />
    <path
       style="fill:none;fill-rule:evenodd;stroke:#873c8f;stroke-width:0.264583px;stroke-linecap:butt;stroke-linejoin:miter;stroke-opacity:1"
       d="m 48.426248,139.28903 -8.068551,7.84284"
       id="path1087"
       inkscape:connector-type="polyline"
       inkscape:connector-curvature="0"
       inkscape:connection-start="#path844-3-1" />
    <path
       style="fill:none;fill-rule:evenodd;stroke:#a94ca3;stroke-width:0.264583px;stroke-linecap:butt;stroke-linejoin:miter;stroke-opacity:1"
       d="m 46.80185,120.87167 2.737056,14.93376"
       id="path1089"
       inkscape:connector-type="polyline"
       inkscape:connector-curvature="0"
       inkscape:connection-start="#path844-1"
       inkscape:connection-end="#path844-3-1" />
    <path
       style="fill:none;fill-rule:evenodd;stroke:#a94ca3;stroke-width:0.264583px;stroke-linecap:butt;stroke-linejoin:miter;stroke-opacity:1"
       d="m 61.344996,127.12268 -9.920483,9.30366"
       id="path1091"
       inkscape:connector-type="polyline"
       inkscape:connector-curvature="0"
       inkscape:connection-start="#path844-3-2"
       inkscape:connection-end="#path844-3-1" />
    <path
       style="display:inline;fill:none;fill-rule:evenodd;stroke:#873c8f;stroke-width:0.264583px;stroke-linecap:butt;stroke-linejoin:miter;stroke-opacity:1"
       d="m 63.814514,127.48596 4.339215,7.48515"
       id="path1093"
       inkscape:connector-type="polyline"
       inkscape:connector-curvature="0"
       inkscape:connection-start="#path844-3-2" />
    <path
       style="fill:none;fill-rule:evenodd;stroke:#873c8f;stroke-width:0.264583px;stroke-linecap:butt;stroke-linejoin:miter;stroke-opacity:1"
       d="m 68.428171,142.05171 -0.274442,-7.0806"
       id="path1095"
       inkscape:connector-type="polyline"
       inkscape:connector-curvature="0"
       inkscape:connection-start="#path844-3-54" />
    <path
       style="fill:none;fill-rule:evenodd;stroke:#873c8f;stroke-width:0.264583px;stroke-linecap:butt;stroke-linejoin:miter;stroke-opacity:1"
       d="m 68.153729,134.97111 14.987797,3.09665"
       id="path1097"
       inkscape:connector-type="polyline"
       inkscape:connector-curvature="0"
       inkscape:connection-end="#path844-3-93" />
    <path
       style="fill:none;fill-rule:evenodd;stroke:#873c8f;stroke-width:0.264583px;stroke-linecap:butt;stroke-linejoin:miter;stroke-opacity:1"
       d="m 77.609529,117.14581 6.349061,20.01567"
       id="path1103"
       inkscape:connector-type="polyline"
       inkscape:connector-curvature="0"
       inkscape:connection-start="#path844-4"
       inkscape:connection-end="#path844-3-93" />
    <path
       style="fill:none;fill-rule:evenodd;stroke:#873c8f;stroke-width:0.264583px;stroke-linecap:butt;stroke-linejoin:miter;stroke-opacity:1"
       d="M 85.408794,137.78376 95.943596,132.6562"
       id="path1105"
       inkscape:connector-type="polyline"
       inkscape:connector-curvature="0"
       inkscape:connection-start="#path844-3-93"
       inkscape:connection-end="#path844-3" />
    <path
       style="fill:none;fill-rule:evenodd;stroke:#873c8f;stroke-width:0.264583px;stroke-linecap:butt;stroke-linejoin:miter;stroke-opacity:1"
       d="m 97.580928,134.36601 -7.997433,14.76827"
       id="path1107"
       inkscape:connector-type="polyline"
       inkscape:connector-curvature="0"
       inkscape:connection-start="#path844-3"
       inkscape:connection-end="#path844-3-20" />
    <path
       style="fill:none;fill-rule:evenodd;stroke:#873c8f;stroke-width:0.264583px;stroke-linecap:butt;stroke-linejoin:miter;stroke-opacity:1"
       d="m 86.466345,150.30253 -16.5358,-6.17337"
       id="path1109"
       inkscape:connector-type="polyline"
       inkscape:connector-curvature="0"
       inkscape:connection-start="#path844-3-20"
       inkscape:connection-end="#path844-3-54" />
    <path
       style="fill:none;fill-rule:evenodd;stroke:#873c8f;stroke-width:0.264583px;stroke-linecap:butt;stroke-linejoin:miter;stroke-opacity:1"
       d="m 67.706222,144.91744 -7.090057,12.03661"
       id="path1111"
       inkscape:connector-type="polyline"
       inkscape:connector-curvature="0"
       inkscape:connection-start="#path844-3-54"
       inkscape:connection-end="#path844-3-9" />
    <path
       style="fill:none;fill-rule:evenodd;stroke:#6d8ace;stroke-width:0.264583px;stroke-linecap:butt;stroke-linejoin:miter;stroke-opacity:1"
       d="M 58.421078,157.94756 47.277043,155.82243"
       id="path1113"
       inkscape:connector-type="polyline"
       inkscape:connector-curvature="0"
       inkscape:connection-start="#path844-3-9"
       inkscape:connection-end="#path844-3-3" />
    <path
       style="fill:none;fill-rule:evenodd;stroke:#6d8ace;stroke-width:0.264583px;stroke-linecap:butt;stroke-linejoin:miter;stroke-opacity:1"
       d="m 45.497919,157.29044 -0.05199,19.91366"
       id="path1115"
       inkscape:connector-type="polyline"
       inkscape:connector-curvature="0"
       inkscape:connection-start="#path844-3-3"
       inkscape:connection-end="#path844-3-8" />
    <path
       style="fill:none;fill-rule:evenodd;stroke:#6d8ace;stroke-width:0.264583px;stroke-linecap:butt;stroke-linejoin:miter;stroke-opacity:1"
       d="m 48.466556,178.66691 8.646225,-6.87024"
       id="path1117"
       inkscape:connector-type="polyline"
       inkscape:connector-curvature="0"
       inkscape:connection-start="#path844-3-8"
       inkscape:connection-end="#path844-3-22" />
    <path
       style="fill:none;fill-rule:evenodd;stroke:#6d8ace;stroke-width:0.264583px;stroke-linecap:butt;stroke-linejoin:miter;stroke-opacity:1"
       d="m 58.325865,171.94879 8.554621,11.25607"
       id="path1119"
       inkscape:connector-type="polyline"
       inkscape:connector-curvature="0"
       inkscape:connection-start="#path844-3-22"
       inkscape:connection-end="#path844-3-6" />
    <path
       style="fill:none;fill-rule:evenodd;stroke:#6d8ace;stroke-width:0.264583px;stroke-linecap:butt;stroke-linejoin:miter;stroke-opacity:1"
       d="M 70.358648,182.58623 74.90679,167.76808"
       id="path1121"
       inkscape:connector-type="polyline"
       inkscape:connector-curvature="0"
       inkscape:connection-start="#path844-3-6"
       inkscape:connection-end="#path844-3-13" />
    <path
       style="fill:none;fill-rule:evenodd;stroke:#873c8f;stroke-width:0.264583px;stroke-linecap:butt;stroke-linejoin:miter;stroke-opacity:1"
       d="M 73.822513,165.23058 61.185085,158.88474"
       id="path1123"
       inkscape:connector-type="polyline"
       inkscape:connector-curvature="0"
       inkscape:connection-start="#path844-3-13"
       inkscape:connection-end="#path844-3-9" />
    <path
       style="fill:none;fill-rule:evenodd;stroke:#873c8f;stroke-width:0.264583px;stroke-linecap:butt;stroke-linejoin:miter;stroke-opacity:1"
       d="M 76.626331,164.68176 87.080375,152.73427"
       id="path1125"
       inkscape:connector-type="polyline"
       inkscape:connector-curvature="0"
       inkscape:connection-start="#path844-3-13"
       inkscape:connection-end="#path844-3-20" />
    <path
       style="fill:none;fill-rule:evenodd;stroke:#6d8ace;stroke-width:0.264583px;stroke-linecap:butt;stroke-linejoin:miter;stroke-opacity:1"
       d="m 89.11554,153.2018 4.742965,17.3243"
       id="path1127"
       inkscape:connector-type="polyline"
       inkscape:connector-curvature="0"
       inkscape:connection-start="#path844-3-20"
       inkscape:connection-end="#path844-3-4" />
    <path
       style="fill:none;fill-rule:evenodd;stroke:#6d8ace;stroke-width:0.264583px;stroke-linecap:butt;stroke-linejoin:miter;stroke-opacity:1"
       d="M 91.315099,172.75263 77.100675,166.74448"
       id="path1129"
       inkscape:connector-type="polyline"
       inkscape:connector-curvature="0"
       inkscape:connection-start="#path844-3-4"
       inkscape:connection-end="#path844-3-13" />
    <path
       style="fill:none;fill-rule:evenodd;stroke:#6d8ace;stroke-width:0.264583px;stroke-linecap:butt;stroke-linejoin:miter;stroke-opacity:1"
       d="m 57.934251,170.38983 1.702797,-10.71116"
       id="path1131"
       inkscape:connector-type="polyline"
       inkscape:connector-curvature="0"
       inkscape:connection-start="#path844-3-22"
       inkscape:connection-end="#path844-3-9" />
    <path
       style="fill:none;fill-rule:evenodd;stroke:#6d8ace;stroke-width:0.264583px;stroke-linecap:butt;stroke-linejoin:miter;stroke-opacity:1"
       d="m 58.635183,171.00533 15.069287,-4.4523"
       id="path1133"
       inkscape:connector-type="polyline"
       inkscape:connector-curvature="0"
       inkscape:connection-start="#path844-3-22"
       inkscape:connection-end="#path844-3-13" />
    <path
       style="fill:none;fill-rule:evenodd;stroke:#6d8ace;stroke-width:0.264583px;stroke-linecap:butt;stroke-linejoin:miter;stroke-opacity:1"
       d="M 57.259656,170.56371 46.613334,156.90865"
       id="path1135"
       inkscape:connector-type="polyline"
       inkscape:connector-curvature="0"
       inkscape:connection-start="#path844-3-22"
       inkscape:connection-end="#path844-3-3" />
    <path
       style="fill:none;fill-rule:evenodd;stroke:#873c8f;stroke-width:0.264583px;stroke-linecap:butt;stroke-linejoin:miter;stroke-opacity:1"
       d="M 45.940754,153.73158 49.40985,139.8552"
       id="path1137"
       inkscape:connector-type="polyline"
       inkscape:connector-curvature="0"
       inkscape:connection-start="#path844-3-3"
       inkscape:connection-end="#path844-3-1" />
    <path
       style="fill:none;fill-rule:evenodd;stroke:#873c8f;stroke-width:0.264583px;stroke-linecap:butt;stroke-linejoin:miter;stroke-opacity:1"
       d="m 51.89278,138.45685 15.123847,4.67858"
       id="path1139"
       inkscape:connector-type="polyline"
       inkscape:connector-curvature="0"
       inkscape:connection-start="#path844-3-1"
       inkscape:connection-end="#path844-3-54" />
    <path
       style="fill:none;fill-rule:evenodd;stroke:#873c8f;stroke-width:0.264583px;stroke-linecap:butt;stroke-linejoin:miter;stroke-opacity:1"
       d="M 59.221631,156.89969 50.822438,139.70672"
       id="path1141"
       inkscape:connector-type="polyline"
       inkscape:connector-curvature="0"
       inkscape:connection-start="#path844-3-9"
       inkscape:connection-end="#path844-3-1" />
    <path
       style="fill:none;fill-rule:evenodd;stroke:#000000;stroke-width:0.264583px;stroke-linecap:butt;stroke-linejoin:miter;stroke-opacity:1"
       d="m 87.842007,148.9791 -3.140394,-9.52087"
       id="path1143"
       inkscape:connector-type="polyline"
       inkscape:connector-curvature="0"
       inkscape:connection-start="#path844-3-20"
       inkscape:connection-end="#path844-3-93" />
    <path
       style="fill:none;fill-rule:evenodd;stroke:#873c8f;stroke-width:0.264583px;stroke-linecap:butt;stroke-linejoin:miter;stroke-opacity:1"
       d="m 83.178493,138.69366 -13.229719,4.4099"
       id="path1145"
       inkscape:connector-type="polyline"
       inkscape:connector-curvature="0"
       inkscape:connection-start="#path844-3-93"
       inkscape:connection-end="#path844-3-54" />
    <path
       style="fill:none;fill-rule:evenodd;stroke:#873c8f;stroke-width:0.264583px;stroke-linecap:butt;stroke-linejoin:miter;stroke-opacity:1"
       d="m 68.943161,145.06166 5.959543,19.25393"
       id="path1147"
       inkscape:connector-type="polyline"
       inkscape:connector-curvature="0"
       inkscape:connection-start="#path844-3-54"
       inkscape:connection-end="#path844-3-13" />
    <path
       style="display:inline;fill:none;fill-rule:evenodd;stroke:#a94ca3;stroke-width:0.264583px;stroke-linecap:butt;stroke-linejoin:miter;stroke-opacity:1"
       d="m 75.500207,117.21141 -2.268357,9.07344"
       id="path1149"
       inkscape:connector-type="polyline"
       inkscape:connector-curvature="0"
       inkscape:connection-start="#path844-4" />
    <path
       style="display:inline;fill:none;fill-rule:evenodd;stroke:#a94ca3;stroke-width:0.264583px;stroke-linecap:butt;stroke-linejoin:miter;stroke-opacity:1"
       d="m 64.811912,125.85306 8.419938,0.43179"
       id="path1151"
       inkscape:connector-type="polyline"
       inkscape:connector-curvature="0"
       inkscape:connection-start="#path844-3-2" />
    <path
       style="display:inline;fill:none;fill-rule:evenodd;stroke:#a94ca3;stroke-width:0.264583px;stroke-linecap:butt;stroke-linejoin:miter;stroke-opacity:1"
       d="M 83.505275,137.42471 73.23185,126.28485"
       id="path1153"
       inkscape:connector-type="polyline"
       inkscape:connector-curvature="0"
       inkscape:connection-start="#path844-3-93" />
    <path
       style="display:inline;fill:none;fill-rule:evenodd;stroke:#6d8ace;stroke-width:0.264583px;stroke-linecap:butt;stroke-linejoin:miter;stroke-opacity:1"
       d="m 71.539967,183.18596 6.770005,-9.05987"
       id="path1159"
       inkscape:connector-type="polyline"
       inkscape:connector-curvature="0"
       inkscape:connection-start="#path844-3-6" />
    <path
       style="fill:none;fill-rule:evenodd;stroke:#000000;stroke-width:0.264583px;stroke-linecap:butt;stroke-linejoin:miter;stroke-opacity:1"
       d="m 94.880684,174.25974 v 0"
       id="path1161"
       inkscape:connector-type="polyline"
       inkscape:connector-curvature="0"
       inkscape:connection-start="#path844-3-4"
       inkscape:connection-end="#path844-3-4" />
    <path
       style="fill:none;fill-rule:evenodd;stroke:#6d8ace;stroke-width:0.264583px;stroke-linecap:butt;stroke-linejoin:miter;stroke-opacity:1"
       d="M 91.00979,174.22852 78.309972,174.12609"
       id="path1163"
       inkscape:connector-type="polyline"
       inkscape:connector-curvature="0"
       inkscape:connection-start="#path844-3-4" />
    <path
       style="fill:none;fill-rule:evenodd;stroke:#6d8ace;stroke-width:0.264583px;stroke-linecap:butt;stroke-linejoin:miter;stroke-opacity:1"
       d="m 76.041704,167.74331 2.268268,6.38278"
       id="path1165"
       inkscape:connector-type="polyline"
       inkscape:connector-curvature="0"
       inkscape:connection-start="#path844-3-13" />
    <path
       style="fill:none;fill-rule:evenodd;stroke:#873c8f;stroke-width:0.264583px;stroke-linecap:butt;stroke-linejoin:miter;stroke-opacity:1"
       d="m 44.555214,153.94603 -4.197517,-6.81416"
       id="path1167"
       inkscape:connector-type="polyline"
       inkscape:connector-curvature="0"
       inkscape:connection-start="#path844-3-3" />
    <g
       aria-label="Netty"
       id="text1171"
       style="font-style:normal;font-weight:normal;font-size:10.5833px;line-height:0;font-family:sans-serif;letter-spacing:0px;word-spacing:0px;fill:#873c8f;fill-opacity:1;stroke:none;stroke-width:0.264583">
      <path
         d="m 58.046373,199.45333 -3.296946,-5.27098 h -1.136878 v 7.31736 h 1.229895 v -5.26581 l 3.281443,5.26581 h 1.142045 v -7.31736 h -1.219559 z"
         style="font-style:normal;font-variant:normal;font-weight:normal;font-stretch:normal;line-height:1.25;font-family:Normung;-inkscape-font-specification:Normung;fill:#873c8f;fill-opacity:1;stroke-width:0.264583"
         id="path927" />
      <path
         d="m 65.203536,201.13798 0.186034,-0.0879 -0.465086,-1.01803 -0.191202,0.0878 c -0.537433,0.23771 -1.059364,0.35657 -1.570959,0.35657 -0.532265,0 -0.91467,-0.11886 -1.152381,-0.3669 -0.08785,-0.093 -0.160196,-0.21187 -0.206705,-0.35657 -0.04134,-0.15503 -0.06718,-0.28422 -0.07751,-0.39274 0,-0.0775 -0.0052,-0.17053 -0.0052,-0.28422 h 3.824044 v -0.3514 c 0,-0.41341 -0.01034,-0.7183 -0.03101,-0.93017 -0.02067,-0.22221 -0.07751,-0.43925 -0.170531,-0.66145 -0.165364,-0.39274 -0.434081,-0.71314 -0.816485,-0.95085 -0.418578,-0.23771 -0.91467,-0.35656 -1.488277,-0.35656 -0.589109,0 -1.085201,0.11885 -1.498612,0.35139 -0.377236,0.23772 -0.645953,0.54777 -0.806149,0.94051 -0.06201,0.1602 -0.108521,0.3359 -0.144694,0.53227 -0.02584,0.18603 -0.04651,0.34623 -0.05168,0.48059 -0.0052,0.12919 -0.0052,0.32039 -0.0052,0.56844 0,0.30489 0,0.53743 0.01033,0.70279 0.01034,0.1757 0.04651,0.38758 0.113688,0.63045 0.07235,0.25839 0.1757,0.48059 0.320393,0.6718 0.19637,0.26871 0.465087,0.48058 0.80615,0.63561 0.397907,0.16537 0.857826,0.24288 1.379756,0.24288 0.723468,0 1.405595,-0.14469 2.041213,-0.44441 z m -3.472645,-2.90938 c 0.02067,-0.26355 0.06718,-0.48575 0.139526,-0.65629 0.08785,-0.19637 0.23771,-0.35139 0.439248,-0.46508 0.201537,-0.11369 0.444416,-0.1757 0.728635,-0.1757 0.268717,0 0.511595,0.062 0.7183,0.1757 0.206705,0.11885 0.356567,0.27388 0.449584,0.47025 0.07235,0.16537 0.118855,0.38241 0.139526,0.65112 z"
         style="font-style:normal;font-variant:normal;font-weight:normal;font-stretch:normal;line-height:1.25;font-family:Normung;-inkscape-font-specification:Normung;fill:#873c8f;fill-opacity:1;stroke-width:0.264583"
         id="path929" />
      <path
         d="m 67.001869,200.68323 c 0.08785,0.27905 0.263549,0.49609 0.527098,0.65112 0.351399,0.16536 0.764809,0.24804 1.245398,0.24804 0.330728,0 0.671792,-0.0775 1.02319,-0.23254 l 0.191203,-0.0879 -0.48059,-1.02319 -0.186034,0.0982 c -0.191202,0.093 -0.356566,0.13953 -0.496092,0.13953 -0.07752,0 -0.139526,-0.005 -0.191203,-0.0258 -0.05168,-0.0207 -0.09818,-0.0568 -0.134358,-0.10852 -0.03101,-0.062 -0.04651,-0.24288 -0.04651,-0.53226 v -2.84737 h 1.121375 v -1.05419 h -1.121375 v -1.20923 h -1.514115 v 1.20923 h -0.775144 v 1.05419 h 0.775144 v 2.90421 c 0,0.40824 0.02067,0.67696 0.06201,0.81649 z"
         style="font-style:normal;font-variant:normal;font-weight:normal;font-stretch:normal;line-height:1.25;font-family:Normung;-inkscape-font-specification:Normung;fill:#873c8f;fill-opacity:1;stroke-width:0.264583"
         id="path931" />
      <path
         d="m 70.991278,200.68323 c 0.08785,0.27905 0.263549,0.49609 0.527098,0.65112 0.351398,0.16536 0.764809,0.24804 1.245398,0.24804 0.330728,0 0.671791,-0.0775 1.02319,-0.23254 l 0.191202,-0.0879 -0.480589,-1.02319 -0.186035,0.0982 c -0.191202,0.093 -0.356566,0.13953 -0.496092,0.13953 -0.07751,0 -0.139526,-0.005 -0.191202,-0.0258 -0.05168,-0.0207 -0.09819,-0.0568 -0.134358,-0.10852 -0.03101,-0.062 -0.04651,-0.24288 -0.04651,-0.53226 v -2.84737 h 1.121375 v -1.05419 H 72.44338 v -1.20923 h -1.514115 v 1.20923 h -0.775144 v 1.05419 h 0.775144 v 2.90421 c 0,0.40824 0.02067,0.67696 0.06201,0.81649 z"
         style="font-style:normal;font-variant:normal;font-weight:normal;font-stretch:normal;line-height:1.25;font-family:Normung;-inkscape-font-specification:Normung;fill:#873c8f;fill-opacity:1;stroke-width:0.264583"
         id="path933" />
      <path
         d="m 74.510432,203.6081 c 0.263549,0.0672 0.50126,0.0982 0.713132,0.0982 0.573607,0 1.064531,-0.14986 1.467606,-0.45992 0.1757,-0.13436 0.320393,-0.28939 0.428913,-0.46509 0.103353,-0.16019 0.191203,-0.36173 0.279052,-0.60461 l 2.154901,-6.26833 h -1.224728 l -1.369421,4.09276 -1.622635,-4.09276 h -1.245398 l 2.237582,5.40534 -0.196369,0.56327 c -0.04651,0.11368 -0.07751,0.19637 -0.103353,0.25838 -0.02584,0.0517 -0.06201,0.10852 -0.10852,0.17053 -0.04134,0.062 -0.09302,0.10852 -0.149861,0.14469 -0.144694,0.10336 -0.330728,0.14986 -0.547769,0.14986 -0.134358,0 -0.279052,-0.0207 -0.439248,-0.062 l -0.201537,-0.0568 -0.273885,1.08003 z"
         style="font-style:normal;font-variant:normal;font-weight:normal;font-stretch:normal;line-height:1.25;font-family:Normung;-inkscape-font-specification:Normung;fill:#873c8f;fill-opacity:1;stroke-width:0.264583"
         id="path935" />
    </g>
    <g
       aria-label="Span"
       id="text925"
       style="font-style:normal;font-weight:normal;font-size:7.05556px;line-height:1.25;font-family:sans-serif;letter-spacing:0px;word-spacing:0px;fill:#6d8ace;fill-opacity:1;stroke:none;stroke-width:0.264583">
      <path
         d="m 43.902553,191.35247 c 0.258383,0.14814 0.51332,0.26183 0.761367,0.34796 0.292833,0.0896 0.606337,0.13091 0.940512,0.13091 0.299723,0 0.568441,-0.0413 0.813043,-0.12402 0.220486,-0.0792 0.396186,-0.18604 0.530545,-0.32384 0.127468,-0.13436 0.227376,-0.28939 0.296278,-0.46164 0.07235,-0.16881 0.106798,-0.3514 0.106798,-0.54088 0,-0.29284 -0.08268,-0.55811 -0.241157,-0.78893 -0.161919,-0.23082 -0.403076,-0.40652 -0.733805,-0.52021 -0.137804,-0.0413 -0.33073,-0.0827 -0.578777,-0.12058 -0.234267,-0.0379 -0.396186,-0.0689 -0.489204,-0.0965 -0.186035,-0.0517 -0.320394,-0.13092 -0.406521,-0.24116 -0.08957,-0.11369 -0.134359,-0.24116 -0.134359,-0.38585 0,-0.18259 0.07235,-0.33762 0.210151,-0.46509 0.137804,-0.12058 0.34451,-0.18259 0.627008,-0.18259 0.323839,0 0.706245,0.0999 1.150662,0.29628 l 0.127469,0.0586 0.320394,-0.69247 -0.120578,-0.062 c -0.516765,-0.23771 -1.009414,-0.35829 -1.477947,-0.35829 -0.547771,0 -0.968073,0.13436 -1.257461,0.39619 -0.275608,0.26182 -0.409967,0.58566 -0.409967,0.96462 0,0.1447 0.02067,0.28595 0.06201,0.41686 0.04479,0.13091 0.106798,0.25494 0.192926,0.37207 0.168809,0.23082 0.430637,0.39963 0.782037,0.50643 0.127468,0.0344 0.310059,0.0724 0.55466,0.11024 0.223932,0.0379 0.389297,0.0689 0.489204,0.0999 0.186036,0.0551 0.320394,0.14125 0.399632,0.25149 0.07924,0.11714 0.120578,0.25149 0.120578,0.39963 0,0.0689 -0.01033,0.13436 -0.02412,0.19982 -0.01378,0.062 -0.04134,0.12747 -0.08613,0.19637 -0.04479,0.0655 -0.09991,0.12402 -0.16881,0.17226 -0.06201,0.0482 -0.148139,0.0861 -0.258382,0.11713 -0.117133,0.0344 -0.248047,0.0482 -0.396186,0.0482 -0.392742,0 -0.837159,-0.13091 -1.326363,-0.39274 l -0.124024,-0.0724 -0.368625,0.67869 z"
         style="font-style:normal;font-variant:normal;font-weight:normal;font-stretch:normal;font-size:7.05556px;font-family:Normung;-inkscape-font-specification:Normung;fill:#6d8ace;fill-opacity:1;stroke-width:0.264583"
         id="path938" />
      <path
         d="m 48.853159,188.26222 v -0.22393 h -0.792373 v 5.15386 h 0.792373 v -1.64675 c 0.292833,0.18603 0.627008,0.27561 0.999078,0.27561 0.303169,0 0.578777,-0.0551 0.819933,-0.16537 0.213596,-0.10335 0.378961,-0.24116 0.49954,-0.41341 0.124023,-0.1757 0.206705,-0.36863 0.244601,-0.57533 0.03445,-0.19637 0.05512,-0.45131 0.05512,-0.76481 0,-0.31006 -0.02067,-0.565 -0.05512,-0.76137 -0.0379,-0.20671 -0.120578,-0.39963 -0.244601,-0.57533 -0.120579,-0.17226 -0.285944,-0.31006 -0.49954,-0.41341 -0.241156,-0.11025 -0.516764,-0.16881 -0.819933,-0.16881 -0.37207,0 -0.706245,0.093 -0.999078,0.27905 z m 1.619196,0.71314 c 0.08957,0.0896 0.144694,0.19981 0.168809,0.33417 0.02412,0.14469 0.0379,0.34451 0.0379,0.59256 0,0.25149 -0.01378,0.4513 -0.0379,0.596 -0.02412,0.13436 -0.07924,0.2446 -0.168809,0.33417 -0.158475,0.16881 -0.392741,0.2515 -0.7028,0.2515 -0.310059,0 -0.544326,-0.0827 -0.706245,-0.2515 -0.08613,-0.0896 -0.141249,-0.19981 -0.16881,-0.33417 -0.02756,-0.1447 -0.04134,-0.34451 -0.04134,-0.596 0,-0.24805 0.01378,-0.44787 0.04134,-0.59256 0.02756,-0.13436 0.08268,-0.2446 0.16881,-0.33417 0.161919,-0.16881 0.396186,-0.25494 0.706245,-0.25494 0.310059,0 0.544325,0.0861 0.7028,0.25494 z"
         style="font-style:normal;font-variant:normal;font-weight:normal;font-stretch:normal;font-size:7.05556px;font-family:Normung;-inkscape-font-specification:Normung;fill:#6d8ace;fill-opacity:1;stroke-width:0.264583"
         id="path940" />
      <path
         d="m 53.004501,190.29483 c 0.07579,-0.0792 0.186036,-0.13436 0.334175,-0.16881 0.110243,-0.0241 0.361735,-0.0379 0.751031,-0.0379 h 0.427192 c 0,0.093 0,0.16192 0,0.21015 0,0.062 -0.0069,0.13092 -0.01723,0.20326 -0.0069,0.0689 -0.02412,0.13092 -0.04134,0.18259 -0.05857,0.13436 -0.161919,0.23427 -0.306613,0.29973 -0.15503,0.0689 -0.327284,0.0999 -0.5271,0.0999 -0.237712,0 -0.420302,-0.0448 -0.547771,-0.13781 -0.117133,-0.0965 -0.1757,-0.21359 -0.1757,-0.35484 0,-0.11369 0.03445,-0.2136 0.103353,-0.29628 z m 2.246204,-1.42627 c -0.09302,-0.28595 -0.268718,-0.50299 -0.5271,-0.65802 -0.268718,-0.15158 -0.609782,-0.22737 -1.012859,-0.22737 -0.413411,0 -0.847494,0.0999 -1.298802,0.29972 l -0.127468,0.0586 0.313504,0.67868 0.127468,-0.0586 c 0.368626,-0.15847 0.69591,-0.24115 0.985298,-0.24115 0.18259,0 0.34451,0.0276 0.482314,0.0827 0.130914,0.0517 0.223931,0.12747 0.279053,0.23082 0.02067,0.0448 0.03445,0.093 0.0379,0.15159 0.0034,0.0448 0.0069,0.11024 0.0069,0.19981 H 54.06216 c -0.172255,0 -0.299723,0.003 -0.385851,0.003 -0.08957,0 -0.192925,0.007 -0.313504,0.0172 -0.120578,0.0138 -0.234266,0.031 -0.334174,0.0551 -0.296278,0.0827 -0.523655,0.22738 -0.682129,0.43064 -0.158475,0.20326 -0.237712,0.43753 -0.237712,0.7028 0,0.17226 0.03101,0.33073 0.09302,0.47887 0.06201,0.14814 0.15503,0.27905 0.279053,0.39619 0.248047,0.23426 0.599447,0.3514 1.06109,0.3514 0.365181,0 0.692465,-0.0896 0.978408,-0.26872 v 0.21359 h 0.792373 v -2.21864 c 0,-0.32728 -0.02067,-0.55121 -0.06201,-0.67868 z"
         style="font-style:normal;font-variant:normal;font-weight:normal;font-stretch:normal;font-size:7.05556px;font-family:Normung;-inkscape-font-specification:Normung;fill:#6d8ace;fill-opacity:1;stroke-width:0.264583"
         id="path942" />
      <path
         d="m 57.035266,188.25877 v -0.22048 h -0.792372 v 3.72759 h 0.792372 v -2.06705 c 0,-0.19637 0.0034,-0.33762 0.01378,-0.42375 0.01033,-0.0758 0.03445,-0.14814 0.07579,-0.21704 0.06201,-0.1068 0.158474,-0.18604 0.289388,-0.2446 0.134359,-0.062 0.289388,-0.093 0.465088,-0.093 0.172255,0 0.327284,0.031 0.461643,0.093 0.130914,0.0586 0.227377,0.1378 0.289388,0.2446 0.04134,0.0689 0.06546,0.14125 0.07579,0.21704 0.01033,0.0861 0.01722,0.22738 0.01722,0.42375 v 2.06705 h 0.792373 v -2.13251 c 0,-0.13091 -0.0034,-0.23082 -0.0069,-0.29972 0,-0.0724 -0.01033,-0.15848 -0.02756,-0.26183 -0.01723,-0.11025 -0.04479,-0.20671 -0.08268,-0.29284 -0.110243,-0.25149 -0.279053,-0.44786 -0.509874,-0.58566 -0.254937,-0.13781 -0.551216,-0.21015 -0.888835,-0.21015 -0.354845,0 -0.67524,0.093 -0.964628,0.2756 z"
         style="font-style:normal;font-variant:normal;font-weight:normal;font-stretch:normal;font-size:7.05556px;font-family:Normung;-inkscape-font-specification:Normung;fill:#6d8ace;fill-opacity:1;stroke-width:0.264583"
         id="path944" />
    </g>
  </g>
</svg>
